{
  "accessors": [
    {
      "bufferView": 2,
      "componentType": 5126,
      "count": 65532,
      "max": [
        11607.39453125,
        14322.521484375,
        21389.212890625
      ],
      "min": [
        0,
        0,
        8460.431640625
      ],
      "type": "VEC3"
    },
    {
      "bufferView": 2,
      "byteOffset": 786384,
      "componentType": 5126,
      "count": 65532,
      "max": [
        0.99979764223098755,
        0.9999956488609314,
        0.99997437000274658
      ],
      "min": [
        -0.99999278783798218,
        -0.99975550174713135,
        -0.99999898672103882
      ],
      "type": "VEC3"
    },
    {
      "bufferView": 3,
      "componentType": 5126,
      "count": 65532,
      "max": [
        0.994232177734375,
        0.99999827146530151,
        0.99998801946640015,
        1
      ],
      "min": [
        -0.99999964237213135,
        -0.999991774559021,
        -0.99999988079071045,
        -1
      ],
      "type": "VEC4"
    },
    {
      "bufferView": 1,
      "componentType": 5126,
      "count": 65532,
      "max": [
        0.99803298711776733,
        0.99803197383880615
      ],
      "min": [
        0.0039349999278783798,
        0.0039349999278783798
      ],
      "type": "VEC2"
    },
    {
      "bufferView": 0,
      "componentType": 5125,
      "count": 347970,
      "max": [
        65531
      ],
      "min": [
        0
      ],
      "type": "SCALAR"
    },
    {
      "bufferView": 2,
      "byteOffset": 1572768,
      "componentType": 5126,
      "count": 65532,
      "max": [
        13186.55078125,
        26504.74609375,
        20978.197265625
      ],
      "min": [
        2916.0703125,
        284.791015625,
        8573.34375
      ],
      "type": "VEC3"
    },
    {
      "bufferView": 2,
      "byteOffset": 2359152,
      "componentType": 5126,
      "count": 65532,
      "max": [
        0.99997115135192871,
        0.99999374151229858,
        0.99985373020172119
      ],
      "min": [
        -0.99999862909317017,
        -0.99930363893508911,
        -0.99998271465301514
      ],
      "type": "VEC3"
    },
    {
      "bufferView": 3,
      "byteOffset": 1048512,
      "componentType": 5126,
      "count": 65532,
      "max": [
        0.99993234872817993,
        0.99999725818634033,
        0.99987244606018066,
        1
      ],
      "min": [
        -0.99999946355819702,
        -0.99955439567565918,
        -0.99999934434890747,
        -1
      ],
      "type": "VEC4"
    },
    {
      "bufferView": 1,
      "byteOffset": 524256,
      "componentType": 5126,
      "count": 65532,
      "max": [
        0.99803298711776733,
        0.99803197383880615
      ],
      "min": [
        0.0039349999278783798,
        0.0039349999278783798
      ],
      "type": "VEC2"
    },
    {
      "bufferView": 0,
      "byteOffset": 1391880,
      "componentType": 5125,
      "count": 350304,
      "max": [
        65531
      ],
      "min": [
        0
      ],
      "type": "SCALAR"
    },
    {
      "bufferView": 2,
      "byteOffset": 3145536,
      "componentType": 5126,
      "count": 65532,
      "max": [
        10740.5224609375,
        23380.10546875,
        21019.697265625
      ],
      "min": [
        1473.19189453125,
        13957.5390625,
        9921.796875
      ],
      "type": "VEC3"
    },
    {
      "bufferView": 2,
      "byteOffset": 3931920,
      "componentType": 5126,
      "count": 65532,
      "max": [
        0.99998050928115845,
        0.99994832277297974,
        0.99999260902404785
      ],
      "min": [
        -0.99999624490737915,
        -0.99982810020446777,
        -0.99998456239700317
      ],
      "type": "VEC3"
    },
    {
      "bufferView": 3,
      "byteOffset": 2097024,
      "componentType": 5126,
      "count": 65532,
      "max": [
        0.9997020959854126,
        0.99999821186065674,
        0.99963033199310303,
        1
      ],
      "min": [
        -0.99998664855957031,
        -0.99856215715408325,
        -0.99999970197677612,
        -1
      ],
      "type": "VEC4"
    },
    {
      "bufferView": 1,
      "byteOffset": 1048512,
      "componentType": 5126,
      "count": 65532,
      "max": [
        0.9979100227355957,
        0.99803197383880615
      ],
      "min": [
        0.0039349999278783798,
        0.0039349999278783798
      ],
      "type": "VEC2"
    },
    {
      "bufferView": 0,
      "byteOffset": 2793096,
      "componentType": 5125,
      "count": 337485,
      "max": [
        65531
      ],
      "min": [
        0
      ],
      "type": "SCALAR"
    },
    {
      "bufferView": 2,
      "byteOffset": 4718304,
      "componentType": 5126,
      "count": 34628,
      "max": [
        11914.83203125,
        28316.458984375,
        20643.4765625
      ],
      "min": [
        1262.39404296875,
        14070.609375,
        0
      ],
      "type": "VEC3"
    },
    {
      "bufferView": 2,
      "byteOffset": 5133840,
      "componentType": 5126,
      "count": 34628,
      "max": [
        0.99999803304672241,
        0.9999120831489563,
        0.99999260902404785
      ],
      "min": [
        -0.99993675947189331,
        -0.99999743700027466,
        -0.99999815225601196
      ],
      "type": "VEC3"
    },
    {
      "bufferView": 3,
      "byteOffset": 3145536,
      "componentType": 5126,
      "count": 34628,
      "max": [
        0.99861174821853638,
        0.99984729290008545,
        0.99688750505447388,
        1
      ],
      "min": [
        -0.99997323751449585,
        -0.9967913031578064,
        -0.99998879432678223,
        -1
      ],
      "type": "VEC4"
    },
    {
      "bufferView": 1,
      "byteOffset": 1572768,
      "componentType": 5126,
      "count": 34628,
      "max": [
        0.99803298711776733,
        0.99803197383880615
      ],
      "min": [
        0.0039349999278783798,
        0.0039349999278783798
      ],
      "type": "VEC2"
    },
    {
      "bufferView": 0,
      "byteOffset": 4143036,
      "componentType": 5125,
      "count": 182184,
      "max": [
        34627
      ],
      "min": [
        0
      ],
      "type": "SCALAR"
    }
  ],
  "asset": {
    "generator": "Sketchfab (OSG glTF plugin)",
    "version": "2.0"
  },
  "bufferViews": [
    {
      "buffer": 0,
      "byteLength": 4871772,
      "byteOffset": 0,
      "name": "floatBufferViews",
      "target": 34963
    },
    {
      "buffer": 0,
      "byteLength": 1849792,
      "byteOffset": 4871772,
      "byteStride": 8,
      "name": "floatBufferViews",
      "target": 34962
    },
    {
      "buffer": 0,
      "byteLength": 5549376,
      "byteOffset": 6721564,
      "byteStride": 12,
      "name": "floatBufferViews",
      "target": 34962
    },
    {
      "buffer": 0,
      "byteLength": 3699584,
      "byteOffset": 12270940,
      "byteStride": 16,
      "name": "floatBufferViews",
      "target": 34962
    }
  ],
  "buffers": [
    {
      "byteLength": 15970524,
      "uri": "scene.bin"
    }
  ],
  "images": [
    {
      "uri": "textures/Material_0_baseColor.jpeg"
    },
    {
      "uri": "textures/Material_0_metallicRoughness.png"
    }
  ],
  "materials": [
    {
      "doubleSided": true,
      "emissiveFactor": [
        0,
        0,
        0
      ],
      "name": "Material_0",
      "pbrMetallicRoughness": {
        "baseColorFactor": [
          1,
          1,
          1,
          1
        ],
        "baseColorTexture": {
          "index": 0,
          "texCoord": 0
        },
        "metallicFactor": 0,
        "metallicRoughnessTexture": {
          "index": 1,
          "texCoord": 0
        },
        "roughnessFactor": 1
      }
    }
  ],
  "meshes": [
    {
      "primitives": [
        {
          "attributes": {
            "NORMAL": 1,
            "POSITION": 0,
            "TANGENT": 2,
            "TEXCOORD_0": 3
          },
          "indices": 4,
          "material": 0,
          "mode": 4
        }
      ]
    },
    {
      "primitives": [
        {
          "attributes": {
            "NORMAL": 6,
            "POSITION": 5,
            "TANGENT": 7,
            "TEXCOORD_0": 8
          },
          "indices": 9,
          "material": 0,
          "mode": 4
        }
      ]
    },
    {
      "primitives": [
        {
          "attributes": {
            "NORMAL": 11,
            "POSITION": 10,
            "TANGENT": 12,
            "TEXCOORD_0": 13
          },
          "indices": 14,
          "material": 0,
          "mode": 4
        }
      ]
    },
    {
      "primitives": [
        {
          "attributes": {
            "NORMAL": 16,
            "POSITION": 15,
            "TANGENT": 17,
            "TEXCOORD_0": 18
          },
          "indices": 19,
          "material": 0,
          "mode": 4
        }
      ]
    }
  ],
  "nodes": [
    {
      "children": [
        1
      ],
      "name": "RootNode (gltf orientation matrix)",
      "rotation": [
        -0.70710678118654746,
        -0,
        -0,
        0.70710678118654757
      ]
    },
    {
      "children": [
        2
      ],
      "matrix": [
        -0.66791820526123047,
        -0.74363201856613159,
        -0.029944637790322304,
        0,
        0,
        -0.040235478430986404,
        0.99919021129608154,
        0,
        -0.74423468112945557,
        0.66737735271453857,
        0.026874007657170296,
        0,
        -3110.66455078125,
        4350.67041015625,
        -5566.99951171875,
        1
      ],
      "name": "RootNode (model correction matrix)"
    },
    {
      "children": [
        3
      ],
      "matrix": [
        1,
        0,
        0,
        0,
        0,
        1,
        0,
        0,
        0,
        0,
        1,
        0,
        -5803.00390625,
        -14358.6201171875,
        -16645.427734375,
        1
      ],
      "name": "ganesha.obj.cleaner.gles"
    },
    {
      "children": [
        4,
        5,
        6,
        7
      ],
      "name": "Geode"
    },
    {
      "mesh": 0,
      "name": ""
    },
    {
      "mesh": 1,
      "name": ""
    },
    {
      "mesh": 2,
      "name": ""
    },
    {
      "mesh": 3,
      "name": ""
    }
  ],
  "samplers": [
    {
      "magFilter": 9729,
      "minFilter": 9987,
      "wrapS": 10497,
      "wrapT": 10497
    },
    {
      "magFilter": 9729,
      "minFilter": 9729,
      "wrapS": 10497,
      "wrapT": 10497
    }
  ],
  "scene": 0,
  "scenes": [
    {
      "name": "OSG_Scene",
      "nodes": [
        0
      ]
    }
  ],
  "textures": [
    {
      "sampler": 0,
      "source": 0
    },
    {
      "sampler": 1,
      "source": 1
    }
  ]
}

